<svg width="12" height="10" viewBox="0 0 12 10" fill="none" xmlns="http://www.w3.org/2000/svg">
<path d="M0.721267 5.98521C0.770368 5.99318 0.820059 5.99686 0.869777 5.99621L9.33554 5.99621L9.15094 6.08207C8.9705 6.16748 8.80635 6.28371 8.66583 6.42551L6.29182 8.79952C5.97916 9.09799 5.92662 9.57813 6.16733 9.93716C6.44747 10.3197 6.98471 10.4028 7.36732 10.1227C7.39823 10.1 7.42761 10.0753 7.45522 10.0488L11.7482 5.75581C12.0837 5.42069 12.084 4.87706 11.7489 4.54157C11.7486 4.54135 11.7484 4.54111 11.7482 4.5409L7.45522 0.247929C7.11945 -0.0868959 6.57583 -0.0861454 6.24098 0.249619C6.21463 0.276047 6.19002 0.304166 6.16733 0.333788C5.92662 0.692814 5.97916 1.17296 6.29182 1.47142L8.66154 3.84973C8.78751 3.97583 8.93235 4.08158 9.09084 4.16312L9.34841 4.27903L0.917026 4.27903C0.478418 4.26274 0.0936079 4.56912 0.0112095 5.00024C-0.0646954 5.46831 0.2532 5.90928 0.721267 5.98521Z" fill="white"/>
</svg>
